<svg width="261" height="194" viewBox="0 0 261 194" fill="none" xmlns="http://www.w3.org/2000/svg">
<path d="M21.98 147C21.86 147 21.758 146.964 21.674 146.892C21.602 146.808 21.566 146.706 21.566 146.586V134.814C21.566 134.694 21.602 134.598 21.674 134.526C21.758 134.442 21.86 134.4 21.98 134.4H22.934C23.054 134.4 23.15 134.442 23.222 134.526C23.306 134.598 23.348 134.694 23.348 134.814V146.586C23.348 146.706 23.306 146.808 23.222 146.892C23.15 146.964 23.054 147 22.934 147H21.98ZM26.6679 147C26.5479 147 26.4459 146.964 26.3619 146.892C26.2899 146.808 26.2539 146.706 26.2539 146.586V138.054C26.2539 137.934 26.2899 137.838 26.3619 137.766C26.4459 137.682 26.5479 137.64 26.6679 137.64H27.4779C27.5979 137.64 27.6939 137.682 27.7659 137.766C27.8499 137.838 27.8919 137.934 27.8919 138.054V138.684C28.5159 137.868 29.3859 137.46 30.5019 137.46C31.8339 137.46 32.7759 138.012 33.3279 139.116C33.6159 138.612 34.0239 138.21 34.5519 137.91C35.0799 137.61 35.6739 137.46 36.3339 137.46C37.3179 137.46 38.1219 137.796 38.7459 138.468C39.3699 139.14 39.6819 140.112 39.6819 141.384V146.586C39.6819 146.706 39.6399 146.808 39.5559 146.892C39.4839 146.964 39.3879 147 39.2679 147H38.4219C38.3019 147 38.1999 146.964 38.1159 146.892C38.0439 146.808 38.0079 146.706 38.0079 146.586V141.546C38.0079 140.61 37.8099 139.938 37.4139 139.53C37.0299 139.122 36.5199 138.918 35.8839 138.918C35.3199 138.918 34.8339 139.128 34.4259 139.548C34.0179 139.956 33.8139 140.622 33.8139 141.546V146.586C33.8139 146.706 33.7719 146.808 33.6879 146.892C33.6159 146.964 33.5199 147 33.3999 147H32.5539C32.4339 147 32.3319 146.964 32.2479 146.892C32.1759 146.808 32.1399 146.706 32.1399 146.586V141.546C32.1399 140.61 31.9359 139.938 31.5279 139.53C31.1319 139.122 30.6279 138.918 30.0159 138.918C29.4519 138.918 28.9659 139.128 28.5579 139.548C28.1499 139.956 27.9459 140.616 27.9459 141.528V146.586C27.9459 146.706 27.9039 146.808 27.8199 146.892C27.7479 146.964 27.6519 147 27.5319 147H26.6679ZM42.682 150.42C42.562 150.42 42.46 150.378 42.376 150.294C42.304 150.222 42.268 150.126 42.268 150.006V138.054C42.268 137.934 42.304 137.838 42.376 137.766C42.46 137.682 42.562 137.64 42.682 137.64H43.51C43.63 137.64 43.726 137.682 43.798 137.766C43.882 137.838 43.924 137.934 43.924 138.054V138.846C44.596 137.922 45.58 137.46 46.876 137.46C48.136 137.46 49.078 137.856 49.702 138.648C50.338 139.44 50.68 140.46 50.728 141.708C50.74 141.84 50.746 142.044 50.746 142.32C50.746 142.596 50.74 142.8 50.728 142.932C50.68 144.168 50.338 145.188 49.702 145.992C49.066 146.784 48.124 147.18 46.876 147.18C45.628 147.18 44.656 146.73 43.96 145.83V150.006C43.96 150.126 43.924 150.222 43.852 150.294C43.78 150.378 43.684 150.42 43.564 150.42H42.682ZM46.498 145.722C47.35 145.722 47.968 145.458 48.352 144.93C48.748 144.402 48.964 143.706 49 142.842C49.012 142.722 49.018 142.548 49.018 142.32C49.018 140.052 48.178 138.918 46.498 138.918C45.67 138.918 45.046 139.194 44.626 139.746C44.218 140.286 43.996 140.934 43.96 141.69L43.942 142.374L43.96 143.076C43.984 143.784 44.212 144.402 44.644 144.93C45.076 145.458 45.694 145.722 46.498 145.722ZM56.8066 147.18C55.4866 147.18 54.4606 146.808 53.7286 146.064C53.0086 145.32 52.6246 144.33 52.5766 143.094L52.5586 142.32L52.5766 141.546C52.6246 140.322 53.0146 139.338 53.7466 138.594C54.4786 137.838 55.4986 137.46 56.8066 137.46C58.1146 137.46 59.1346 137.838 59.8666 138.594C60.5986 139.338 60.9886 140.322 61.0366 141.546C61.0486 141.678 61.0546 141.936 61.0546 142.32C61.0546 142.704 61.0486 142.962 61.0366 143.094C60.9886 144.33 60.5986 145.32 59.8666 146.064C59.1466 146.808 58.1266 147.18 56.8066 147.18ZM56.8066 145.794C57.5626 145.794 58.1566 145.554 58.5886 145.074C59.0326 144.594 59.2726 143.904 59.3086 143.004C59.3206 142.884 59.3266 142.656 59.3266 142.32C59.3266 141.984 59.3206 141.756 59.3086 141.636C59.2726 140.736 59.0326 140.046 58.5886 139.566C58.1566 139.086 57.5626 138.846 56.8066 138.846C56.0506 138.846 55.4506 139.086 55.0066 139.566C54.5626 140.046 54.3286 140.736 54.3046 141.636L54.2866 142.32L54.3046 143.004C54.3286 143.904 54.5626 144.594 55.0066 145.074C55.4506 145.554 56.0506 145.794 56.8066 145.794ZM63.7226 147C63.6026 147 63.5006 146.964 63.4166 146.892C63.3446 146.808 63.3086 146.706 63.3086 146.586V138.072C63.3086 137.952 63.3446 137.85 63.4166 137.766C63.5006 137.682 63.6026 137.64 63.7226 137.64H64.5506C64.6706 137.64 64.7726 137.682 64.8566 137.766C64.9406 137.85 64.9826 137.952 64.9826 138.072V138.864C65.4746 138.048 66.3146 137.64 67.5026 137.64H68.2046C68.3246 137.64 68.4206 137.682 68.4926 137.766C68.5766 137.838 68.6186 137.934 68.6186 138.054V138.792C68.6186 138.912 68.5766 139.008 68.4926 139.08C68.4206 139.152 68.3246 139.188 68.2046 139.188H67.1246C66.4766 139.188 65.9666 139.38 65.5946 139.764C65.2226 140.136 65.0366 140.646 65.0366 141.294V146.586C65.0366 146.706 64.9946 146.808 64.9106 146.892C64.8266 146.964 64.7246 147 64.6046 147H63.7226ZM73.8005 147C71.9045 147 70.9565 145.944 70.9565 143.832V139.08H69.5525C69.4325 139.08 69.3305 139.044 69.2465 138.972C69.1745 138.888 69.1385 138.786 69.1385 138.666V138.054C69.1385 137.934 69.1745 137.838 69.2465 137.766C69.3305 137.682 69.4325 137.64 69.5525 137.64H70.9565V134.634C70.9565 134.514 70.9925 134.418 71.0645 134.346C71.1485 134.262 71.2505 134.22 71.3705 134.22H72.2165C72.3365 134.22 72.4325 134.262 72.5045 134.346C72.5885 134.418 72.6305 134.514 72.6305 134.634V137.64H74.8625C74.9825 137.64 75.0785 137.682 75.1505 137.766C75.2345 137.838 75.2765 137.934 75.2765 138.054V138.666C75.2765 138.786 75.2345 138.888 75.1505 138.972C75.0785 139.044 74.9825 139.08 74.8625 139.08H72.6305V143.706C72.6305 144.306 72.7325 144.762 72.9365 145.074C73.1405 145.374 73.4765 145.524 73.9445 145.524H75.0425C75.1625 145.524 75.2585 145.566 75.3305 145.65C75.4145 145.722 75.4565 145.818 75.4565 145.938V146.586C75.4565 146.706 75.4145 146.808 75.3305 146.892C75.2585 146.964 75.1625 147 75.0425 147H73.8005ZM82.2378 147C82.1178 147 82.0158 146.964 81.9318 146.892C81.8598 146.808 81.8238 146.706 81.8238 146.586V134.814C81.8238 134.694 81.8598 134.598 81.9318 134.526C82.0158 134.442 82.1178 134.4 82.2378 134.4H83.1918C83.3118 134.4 83.4078 134.442 83.4798 134.526C83.5638 134.598 83.6058 134.694 83.6058 134.814V145.434H89.5818C89.7138 145.434 89.8158 145.476 89.8878 145.56C89.9718 145.632 90.0138 145.734 90.0138 145.866V146.586C90.0138 146.706 89.9718 146.808 89.8878 146.892C89.8038 146.964 89.7018 147 89.5818 147H82.2378ZM95.373 147.18C94.053 147.18 93.027 146.808 92.295 146.064C91.575 145.32 91.191 144.33 91.143 143.094L91.125 142.32L91.143 141.546C91.191 140.322 91.581 139.338 92.313 138.594C93.045 137.838 94.065 137.46 95.373 137.46C96.681 137.46 97.701 137.838 98.433 138.594C99.165 139.338 99.555 140.322 99.603 141.546C99.615 141.678 99.621 141.936 99.621 142.32C99.621 142.704 99.615 142.962 99.603 143.094C99.555 144.33 99.165 145.32 98.433 146.064C97.713 146.808 96.693 147.18 95.373 147.18ZM95.373 145.794C96.129 145.794 96.723 145.554 97.155 145.074C97.599 144.594 97.839 143.904 97.875 143.004C97.887 142.884 97.893 142.656 97.893 142.32C97.893 141.984 97.887 141.756 97.875 141.636C97.839 140.736 97.599 140.046 97.155 139.566C96.723 139.086 96.129 138.846 95.373 138.846C94.617 138.846 94.017 139.086 93.573 139.566C93.129 140.046 92.895 140.736 92.871 141.636L92.853 142.32L92.871 143.004C92.895 143.904 93.129 144.594 93.573 145.074C94.017 145.554 94.617 145.794 95.373 145.794ZM105.655 147.18C104.371 147.18 103.363 146.82 102.631 146.1C101.911 145.368 101.527 144.348 101.479 143.04L101.461 142.32L101.479 141.6C101.527 140.292 101.911 139.278 102.631 138.558C103.363 137.826 104.371 137.46 105.655 137.46C106.519 137.46 107.251 137.616 107.851 137.928C108.451 138.24 108.895 138.624 109.183 139.08C109.483 139.536 109.645 139.992 109.669 140.448C109.681 140.568 109.645 140.664 109.561 140.736C109.477 140.808 109.375 140.844 109.255 140.844H108.391C108.271 140.844 108.181 140.82 108.121 140.772C108.061 140.724 108.001 140.628 107.941 140.484C107.737 139.908 107.449 139.5 107.077 139.26C106.705 139.008 106.237 138.882 105.673 138.882C104.929 138.882 104.335 139.116 103.891 139.584C103.459 140.04 103.225 140.742 103.189 141.69L103.171 142.338L103.189 142.95C103.225 143.91 103.459 144.618 103.891 145.074C104.323 145.53 104.917 145.758 105.673 145.758C106.237 145.758 106.705 145.638 107.077 145.398C107.449 145.146 107.737 144.732 107.941 144.156C108.001 144.012 108.061 143.916 108.121 143.868C108.181 143.808 108.271 143.778 108.391 143.778H109.255C109.375 143.778 109.477 143.82 109.561 143.904C109.645 143.976 109.681 144.072 109.669 144.192C109.645 144.636 109.483 145.092 109.183 145.56C108.895 146.016 108.451 146.4 107.851 146.712C107.263 147.024 106.531 147.18 105.655 147.18ZM114.417 147.18C113.829 147.18 113.283 147.06 112.779 146.82C112.275 146.58 111.873 146.256 111.573 145.848C111.285 145.428 111.141 144.966 111.141 144.462C111.141 143.67 111.465 143.022 112.113 142.518C112.773 142.002 113.661 141.666 114.777 141.51L117.459 141.132V140.61C117.459 139.386 116.757 138.774 115.353 138.774C114.825 138.774 114.393 138.888 114.057 139.116C113.721 139.332 113.469 139.59 113.301 139.89C113.265 139.998 113.217 140.076 113.157 140.124C113.109 140.172 113.037 140.196 112.941 140.196H112.167C112.059 140.196 111.963 140.16 111.879 140.088C111.807 140.004 111.771 139.908 111.771 139.8C111.783 139.512 111.915 139.188 112.167 138.828C112.431 138.456 112.833 138.138 113.373 137.874C113.913 137.598 114.579 137.46 115.371 137.46C116.715 137.46 117.681 137.778 118.269 138.414C118.857 139.038 119.151 139.818 119.151 140.754V146.586C119.151 146.706 119.109 146.808 119.025 146.892C118.953 146.964 118.857 147 118.737 147H117.909C117.789 147 117.687 146.964 117.603 146.892C117.531 146.808 117.495 146.706 117.495 146.586V145.812C117.231 146.196 116.847 146.52 116.343 146.784C115.839 147.048 115.197 147.18 114.417 147.18ZM114.795 145.83C115.575 145.83 116.211 145.578 116.703 145.074C117.207 144.558 117.459 143.82 117.459 142.86V142.356L115.371 142.662C114.519 142.782 113.877 142.986 113.445 143.274C113.013 143.55 112.797 143.904 112.797 144.336C112.797 144.816 112.995 145.188 113.391 145.452C113.787 145.704 114.255 145.83 114.795 145.83ZM122.17 147C122.05 147 121.948 146.964 121.864 146.892C121.792 146.808 121.756 146.706 121.756 146.586V134.634C121.756 134.514 121.792 134.418 121.864 134.346C121.948 134.262 122.05 134.22 122.17 134.22H123.016C123.136 134.22 123.232 134.262 123.304 134.346C123.388 134.418 123.43 134.514 123.43 134.634V146.586C123.43 146.706 123.388 146.808 123.304 146.892C123.232 146.964 123.136 147 123.016 147H122.17ZM131.175 147C131.055 147 130.953 146.964 130.869 146.892C130.797 146.808 130.761 146.706 130.761 146.586V134.832C130.761 134.7 130.797 134.598 130.869 134.526C130.953 134.442 131.055 134.4 131.175 134.4H138.519C138.651 134.4 138.753 134.442 138.825 134.526C138.909 134.598 138.951 134.7 138.951 134.832V135.552C138.951 135.672 138.909 135.774 138.825 135.858C138.753 135.93 138.651 135.966 138.519 135.966H132.507V140.16H138.159C138.291 140.16 138.393 140.202 138.465 140.286C138.549 140.358 138.591 140.46 138.591 140.592V141.312C138.591 141.432 138.549 141.534 138.465 141.618C138.381 141.69 138.279 141.726 138.159 141.726H132.507V146.586C132.507 146.706 132.465 146.808 132.381 146.892C132.297 146.964 132.195 147 132.075 147H131.175ZM141.309 135.894C141.189 135.894 141.087 135.858 141.003 135.786C140.931 135.702 140.895 135.6 140.895 135.48V134.508C140.895 134.388 140.931 134.286 141.003 134.202C141.087 134.118 141.189 134.076 141.309 134.076H142.443C142.563 134.076 142.665 134.118 142.749 134.202C142.833 134.286 142.875 134.388 142.875 134.508V135.48C142.875 135.6 142.833 135.702 142.749 135.786C142.665 135.858 142.563 135.894 142.443 135.894H141.309ZM141.453 147C141.333 147 141.231 146.964 141.147 146.892C141.075 146.808 141.039 146.706 141.039 146.586V138.054C141.039 137.934 141.075 137.838 141.147 137.766C141.231 137.682 141.333 137.64 141.453 137.64H142.317C142.437 137.64 142.533 137.682 142.605 137.766C142.689 137.838 142.731 137.934 142.731 138.054V146.586C142.731 146.706 142.689 146.808 142.605 146.892C142.533 146.964 142.437 147 142.317 147H141.453ZM145.83 147C145.71 147 145.608 146.964 145.524 146.892C145.452 146.808 145.416 146.706 145.416 146.586V134.634C145.416 134.514 145.452 134.418 145.524 134.346C145.608 134.262 145.71 134.22 145.83 134.22H146.676C146.796 134.22 146.892 134.262 146.964 134.346C147.048 134.418 147.09 134.514 147.09 134.634V146.586C147.09 146.706 147.048 146.808 146.964 146.892C146.892 146.964 146.796 147 146.676 147H145.83ZM153.519 147.18C152.283 147.18 151.293 146.802 150.549 146.046C149.817 145.278 149.415 144.234 149.343 142.914L149.325 142.302L149.343 141.708C149.427 140.412 149.835 139.38 150.567 138.612C151.311 137.844 152.289 137.46 153.501 137.46C154.833 137.46 155.865 137.886 156.597 138.738C157.329 139.578 157.695 140.718 157.695 142.158V142.464C157.695 142.584 157.653 142.686 157.569 142.77C157.497 142.842 157.401 142.878 157.281 142.878H151.053V143.04C151.089 143.82 151.323 144.486 151.755 145.038C152.199 145.578 152.781 145.848 153.501 145.848C154.053 145.848 154.503 145.74 154.851 145.524C155.211 145.296 155.475 145.062 155.643 144.822C155.751 144.678 155.829 144.594 155.877 144.57C155.937 144.534 156.039 144.516 156.183 144.516H157.065C157.173 144.516 157.263 144.546 157.335 144.606C157.407 144.666 157.443 144.75 157.443 144.858C157.443 145.122 157.275 145.44 156.939 145.812C156.615 146.184 156.153 146.508 155.553 146.784C154.965 147.048 154.287 147.18 153.519 147.18ZM155.985 141.636V141.582C155.985 140.754 155.757 140.082 155.301 139.566C154.857 139.038 154.257 138.774 153.501 138.774C152.745 138.774 152.145 139.038 151.701 139.566C151.269 140.082 151.053 140.754 151.053 141.582V141.636H155.985ZM163.088 147.18C162.248 147.18 161.54 147.048 160.964 146.784C160.4 146.508 159.974 146.196 159.686 145.848C159.41 145.5 159.272 145.212 159.272 144.984C159.272 144.864 159.314 144.774 159.398 144.714C159.494 144.642 159.59 144.606 159.686 144.606H160.496C160.616 144.606 160.724 144.666 160.82 144.786C161.108 145.122 161.42 145.386 161.756 145.578C162.092 145.77 162.542 145.866 163.106 145.866C163.73 145.866 164.234 145.746 164.618 145.506C165.014 145.254 165.212 144.912 165.212 144.48C165.212 144.192 165.128 143.958 164.96 143.778C164.804 143.586 164.528 143.424 164.132 143.292C163.748 143.148 163.172 142.992 162.404 142.824C161.36 142.596 160.616 142.266 160.172 141.834C159.74 141.402 159.524 140.844 159.524 140.16C159.524 139.704 159.656 139.272 159.92 138.864C160.196 138.444 160.592 138.108 161.108 137.856C161.636 137.592 162.266 137.46 162.998 137.46C163.766 137.46 164.42 137.586 164.96 137.838C165.5 138.09 165.902 138.39 166.166 138.738C166.442 139.074 166.58 139.356 166.58 139.584C166.58 139.692 166.538 139.782 166.454 139.854C166.382 139.926 166.292 139.962 166.184 139.962H165.428C165.284 139.962 165.164 139.902 165.068 139.782C164.876 139.554 164.708 139.38 164.564 139.26C164.432 139.128 164.234 139.014 163.97 138.918C163.718 138.822 163.394 138.774 162.998 138.774C162.422 138.774 161.978 138.9 161.666 139.152C161.354 139.392 161.198 139.71 161.198 140.106C161.198 140.358 161.264 140.574 161.396 140.754C161.528 140.922 161.78 141.078 162.152 141.222C162.536 141.366 163.088 141.516 163.808 141.672C164.948 141.912 165.752 142.26 166.22 142.716C166.7 143.16 166.94 143.73 166.94 144.426C166.94 144.942 166.79 145.41 166.49 145.83C166.19 146.25 165.746 146.58 165.158 146.82C164.582 147.06 163.892 147.18 163.088 147.18Z" fill="#191414"/>
<path d="M24.592 174.16C23.4187 174.16 22.5067 173.829 21.856 173.168C21.216 172.507 20.8747 171.627 20.832 170.528L20.816 169.84L20.832 169.152C20.8747 168.064 21.2213 167.189 21.872 166.528C22.5227 165.856 23.4293 165.52 24.592 165.52C25.7547 165.52 26.6613 165.856 27.312 166.528C27.9627 167.189 28.3093 168.064 28.352 169.152C28.3627 169.269 28.368 169.499 28.368 169.84C28.368 170.181 28.3627 170.411 28.352 170.528C28.3093 171.627 27.9627 172.507 27.312 173.168C26.672 173.829 25.7653 174.16 24.592 174.16ZM24.592 172.928C25.264 172.928 25.792 172.715 26.176 172.288C26.5707 171.861 26.784 171.248 26.816 170.448C26.8267 170.341 26.832 170.139 26.832 169.84C26.832 169.541 26.8267 169.339 26.816 169.232C26.784 168.432 26.5707 167.819 26.176 167.392C25.792 166.965 25.264 166.752 24.592 166.752C23.92 166.752 23.3867 166.965 22.992 167.392C22.5973 167.819 22.3893 168.432 22.368 169.232L22.352 169.84L22.368 170.448C22.3893 171.248 22.5973 171.861 22.992 172.288C23.3867 172.715 23.92 172.928 24.592 172.928ZM30.7395 174C30.6328 174 30.5422 173.968 30.4675 173.904C30.4035 173.829 30.3715 173.739 30.3715 173.632V166.064C30.3715 165.957 30.4035 165.867 30.4675 165.792C30.5422 165.717 30.6328 165.68 30.7395 165.68H31.4755C31.5822 165.68 31.6728 165.717 31.7475 165.792C31.8222 165.867 31.8595 165.957 31.8595 166.064V166.768C32.2968 166.043 33.0435 165.68 34.0995 165.68H34.7235C34.8302 165.68 34.9155 165.717 34.9795 165.792C35.0542 165.856 35.0915 165.941 35.0915 166.048V166.704C35.0915 166.811 35.0542 166.896 34.9795 166.96C34.9155 167.024 34.8302 167.056 34.7235 167.056H33.7635C33.1875 167.056 32.7342 167.227 32.4035 167.568C32.0728 167.899 31.9075 168.352 31.9075 168.928V173.632C31.9075 173.739 31.8702 173.829 31.7955 173.904C31.7208 173.968 31.6302 174 31.5235 174H30.7395ZM40.3965 164.128C40.2898 164.128 40.1992 164.096 40.1245 164.032C40.0605 163.957 40.0285 163.867 40.0285 163.76V162.896C40.0285 162.789 40.0605 162.699 40.1245 162.624C40.1992 162.549 40.2898 162.512 40.3965 162.512H41.4205C41.5272 162.512 41.6178 162.549 41.6925 162.624C41.7672 162.699 41.8045 162.789 41.8045 162.896V163.76C41.8045 163.867 41.7672 163.957 41.6925 164.032C41.6178 164.096 41.5272 164.128 41.4205 164.128H40.3965ZM38.6365 177.04C38.5298 177.04 38.4445 177.003 38.3805 176.928C38.3058 176.864 38.2685 176.779 38.2685 176.672V176.128C38.2685 176.021 38.3058 175.931 38.3805 175.856C38.4445 175.792 38.5298 175.76 38.6365 175.76H38.8605C39.3832 175.76 39.7298 175.627 39.9005 175.36C40.0712 175.093 40.1565 174.699 40.1565 174.176V166.048C40.1565 165.941 40.1885 165.856 40.2525 165.792C40.3272 165.717 40.4178 165.68 40.5245 165.68H41.3085C41.4152 165.68 41.5005 165.717 41.5645 165.792C41.6392 165.856 41.6765 165.941 41.6765 166.048V174.192C41.6765 176.091 40.7645 177.04 38.9405 177.04H38.6365ZM47.163 174.16C46.1497 174.16 45.3657 173.835 44.811 173.184C44.2563 172.523 43.979 171.648 43.979 170.56V166.048C43.979 165.941 44.011 165.856 44.075 165.792C44.1497 165.717 44.2403 165.68 44.347 165.68H45.147C45.2537 165.68 45.339 165.717 45.403 165.792C45.4777 165.856 45.515 165.941 45.515 166.048V170.48C45.515 172.069 46.2083 172.864 47.595 172.864C48.267 172.864 48.8003 172.656 49.195 172.24C49.5897 171.813 49.787 171.227 49.787 170.48V166.048C49.787 165.941 49.819 165.856 49.883 165.792C49.9577 165.717 50.0483 165.68 50.155 165.68H50.955C51.0617 165.68 51.147 165.717 51.211 165.792C51.275 165.856 51.307 165.941 51.307 166.048V173.632C51.307 173.739 51.275 173.829 51.211 173.904C51.147 173.968 51.0617 174 50.955 174H50.203C50.0963 174 50.0057 173.968 49.931 173.904C49.867 173.829 49.835 173.739 49.835 173.632V172.928C49.5363 173.333 49.1737 173.643 48.747 173.856C48.3203 174.059 47.7923 174.16 47.163 174.16ZM56.564 174.16C55.8173 174.16 55.188 174.043 54.676 173.808C54.1747 173.563 53.796 173.285 53.54 172.976C53.2947 172.667 53.172 172.411 53.172 172.208C53.172 172.101 53.2093 172.021 53.284 171.968C53.3693 171.904 53.4547 171.872 53.54 171.872H54.26C54.3667 171.872 54.4627 171.925 54.548 172.032C54.804 172.331 55.0813 172.565 55.38 172.736C55.6787 172.907 56.0787 172.992 56.58 172.992C57.1347 172.992 57.5827 172.885 57.924 172.672C58.276 172.448 58.452 172.144 58.452 171.76C58.452 171.504 58.3773 171.296 58.228 171.136C58.0893 170.965 57.844 170.821 57.492 170.704C57.1507 170.576 56.6387 170.437 55.956 170.288C55.028 170.085 54.3667 169.792 53.972 169.408C53.588 169.024 53.396 168.528 53.396 167.92C53.396 167.515 53.5133 167.131 53.748 166.768C53.9933 166.395 54.3453 166.096 54.804 165.872C55.2733 165.637 55.8333 165.52 56.484 165.52C57.1667 165.52 57.748 165.632 58.228 165.856C58.708 166.08 59.0653 166.347 59.3 166.656C59.5453 166.955 59.668 167.205 59.668 167.408C59.668 167.504 59.6307 167.584 59.556 167.648C59.492 167.712 59.412 167.744 59.316 167.744H58.644C58.516 167.744 58.4093 167.691 58.324 167.584C58.1533 167.381 58.004 167.227 57.876 167.12C57.7587 167.003 57.5827 166.901 57.348 166.816C57.124 166.731 56.836 166.688 56.484 166.688C55.972 166.688 55.5773 166.8 55.3 167.024C55.0227 167.237 54.884 167.52 54.884 167.872C54.884 168.096 54.9427 168.288 55.06 168.448C55.1773 168.597 55.4013 168.736 55.732 168.864C56.0733 168.992 56.564 169.125 57.204 169.264C58.2173 169.477 58.932 169.787 59.348 170.192C59.7747 170.587 59.988 171.093 59.988 171.712C59.988 172.171 59.8547 172.587 59.588 172.96C59.3213 173.333 58.9267 173.627 58.404 173.84C57.892 174.053 57.2787 174.16 56.564 174.16ZM65.0726 174C63.3873 174 62.5446 173.061 62.5446 171.184V166.96H61.2966C61.19 166.96 61.0993 166.928 61.0246 166.864C60.9606 166.789 60.9286 166.699 60.9286 166.592V166.048C60.9286 165.941 60.9606 165.856 61.0246 165.792C61.0993 165.717 61.19 165.68 61.2966 165.68H62.5446V163.008C62.5446 162.901 62.5766 162.816 62.6406 162.752C62.7153 162.677 62.806 162.64 62.9126 162.64H63.6646C63.7713 162.64 63.8566 162.677 63.9206 162.752C63.9953 162.816 64.0326 162.901 64.0326 163.008V165.68H66.0166C66.1233 165.68 66.2086 165.717 66.2726 165.792C66.3473 165.856 66.3846 165.941 66.3846 166.048V166.592C66.3846 166.699 66.3473 166.789 66.2726 166.864C66.2086 166.928 66.1233 166.96 66.0166 166.96H64.0326V171.072C64.0326 171.605 64.1233 172.011 64.3046 172.288C64.486 172.555 64.7846 172.688 65.2006 172.688H66.1766C66.2833 172.688 66.3686 172.725 66.4326 172.8C66.5073 172.864 66.5446 172.949 66.5446 173.056V173.632C66.5446 173.739 66.5073 173.829 66.4326 173.904C66.3686 173.968 66.2833 174 66.1766 174H65.0726ZM75.0365 174.16C73.9272 174.16 73.0898 173.797 72.5245 173.072C71.9592 172.347 71.6605 171.429 71.6285 170.32L71.6125 169.84L71.6285 169.36C71.6605 168.261 71.9592 167.349 72.5245 166.624C73.0898 165.888 73.9272 165.52 75.0365 165.52C76.1352 165.52 76.9992 165.909 77.6285 166.688V163.008C77.6285 162.901 77.6605 162.816 77.7245 162.752C77.7992 162.677 77.8898 162.64 77.9965 162.64H78.7645C78.8712 162.64 78.9565 162.677 79.0205 162.752C79.0952 162.816 79.1325 162.901 79.1325 163.008V173.632C79.1325 173.739 79.0952 173.829 79.0205 173.904C78.9565 173.968 78.8712 174 78.7645 174H78.0445C77.9378 174 77.8472 173.968 77.7725 173.904C77.7085 173.829 77.6765 173.739 77.6765 173.632V172.96C77.0578 173.76 76.1778 174.16 75.0365 174.16ZM75.3725 172.864C76.1085 172.864 76.6578 172.624 77.0205 172.144C77.3938 171.653 77.5965 171.072 77.6285 170.4C77.6392 170.283 77.6445 170.08 77.6445 169.792C77.6445 169.493 77.6392 169.285 77.6285 169.168C77.6072 168.539 77.4045 167.989 77.0205 167.52C76.6365 167.051 76.0872 166.816 75.3725 166.816C74.6152 166.816 74.0605 167.051 73.7085 167.52C73.3672 167.989 73.1805 168.608 73.1485 169.376L73.1325 169.84C73.1325 171.856 73.8792 172.864 75.3725 172.864ZM81.8801 174C81.7735 174 81.6828 173.968 81.6081 173.904C81.5441 173.829 81.5121 173.739 81.5121 173.632V166.064C81.5121 165.957 81.5441 165.867 81.6081 165.792C81.6828 165.717 81.7735 165.68 81.8801 165.68H82.6161C82.7228 165.68 82.8135 165.717 82.8881 165.792C82.9628 165.867 83.0001 165.957 83.0001 166.064V166.768C83.4375 166.043 84.1841 165.68 85.2401 165.68H85.8641C85.9708 165.68 86.0561 165.717 86.1201 165.792C86.1948 165.856 86.2321 165.941 86.2321 166.048V166.704C86.2321 166.811 86.1948 166.896 86.1201 166.96C86.0561 167.024 85.9708 167.056 85.8641 167.056H84.9041C84.3281 167.056 83.8748 167.227 83.5441 167.568C83.2135 167.899 83.0481 168.352 83.0481 168.928V173.632C83.0481 173.739 83.0108 173.829 82.9361 173.904C82.8615 173.968 82.7708 174 82.6641 174H81.8801ZM90.842 174.16C89.6687 174.16 88.7567 173.829 88.106 173.168C87.466 172.507 87.1247 171.627 87.082 170.528L87.066 169.84L87.082 169.152C87.1247 168.064 87.4713 167.189 88.122 166.528C88.7727 165.856 89.6793 165.52 90.842 165.52C92.0047 165.52 92.9113 165.856 93.562 166.528C94.2127 167.189 94.5593 168.064 94.602 169.152C94.6127 169.269 94.618 169.499 94.618 169.84C94.618 170.181 94.6127 170.411 94.602 170.528C94.5593 171.627 94.2127 172.507 93.562 173.168C92.922 173.829 92.0153 174.16 90.842 174.16ZM90.842 172.928C91.514 172.928 92.042 172.715 92.426 172.288C92.8207 171.861 93.034 171.248 93.066 170.448C93.0767 170.341 93.082 170.139 93.082 169.84C93.082 169.541 93.0767 169.339 93.066 169.232C93.034 168.432 92.8207 167.819 92.426 167.392C92.042 166.965 91.514 166.752 90.842 166.752C90.17 166.752 89.6367 166.965 89.242 167.392C88.8473 167.819 88.6393 168.432 88.618 169.232L88.602 169.84L88.618 170.448C88.6393 171.248 88.8473 171.861 89.242 172.288C89.6367 172.715 90.17 172.928 90.842 172.928ZM97.0055 177.04C96.8988 177.04 96.8082 177.003 96.7335 176.928C96.6695 176.864 96.6375 176.779 96.6375 176.672V166.048C96.6375 165.941 96.6695 165.856 96.7335 165.792C96.8082 165.717 96.8988 165.68 97.0055 165.68H97.7415C97.8482 165.68 97.9335 165.717 97.9975 165.792C98.0722 165.856 98.1095 165.941 98.1095 166.048V166.752C98.7068 165.931 99.5815 165.52 100.734 165.52C101.854 165.52 102.691 165.872 103.246 166.576C103.811 167.28 104.115 168.187 104.158 169.296C104.168 169.413 104.174 169.595 104.174 169.84C104.174 170.085 104.168 170.267 104.158 170.384C104.115 171.483 103.811 172.389 103.246 173.104C102.68 173.808 101.843 174.16 100.734 174.16C99.6242 174.16 98.7602 173.76 98.1415 172.96V176.672C98.1415 176.779 98.1095 176.864 98.0455 176.928C97.9815 177.003 97.8962 177.04 97.7895 177.04H97.0055ZM100.398 172.864C101.155 172.864 101.704 172.629 102.046 172.16C102.398 171.691 102.59 171.072 102.622 170.304C102.632 170.197 102.638 170.043 102.638 169.84C102.638 167.824 101.891 166.816 100.398 166.816C99.6615 166.816 99.1068 167.061 98.7335 167.552C98.3708 168.032 98.1735 168.608 98.1415 169.28L98.1255 169.888L98.1415 170.512C98.1628 171.141 98.3655 171.691 98.7495 172.16C99.1335 172.629 99.6828 172.864 100.398 172.864ZM112.979 174C111.294 174 110.451 173.061 110.451 171.184V166.96H109.203C109.096 166.96 109.006 166.928 108.931 166.864C108.867 166.789 108.835 166.699 108.835 166.592V166.048C108.835 165.941 108.867 165.856 108.931 165.792C109.006 165.717 109.096 165.68 109.203 165.68H110.451V163.008C110.451 162.901 110.483 162.816 110.547 162.752C110.622 162.677 110.712 162.64 110.819 162.64H111.571C111.678 162.64 111.763 162.677 111.827 162.752C111.902 162.816 111.939 162.901 111.939 163.008V165.68H113.923C114.03 165.68 114.115 165.717 114.179 165.792C114.254 165.856 114.291 165.941 114.291 166.048V166.592C114.291 166.699 114.254 166.789 114.179 166.864C114.115 166.928 114.03 166.96 113.923 166.96H111.939V171.072C111.939 171.605 112.03 172.011 112.211 172.288C112.392 172.555 112.691 172.688 113.107 172.688H114.083C114.19 172.688 114.275 172.725 114.339 172.8C114.414 172.864 114.451 172.949 114.451 173.056V173.632C114.451 173.739 114.414 173.829 114.339 173.904C114.275 173.968 114.19 174 114.083 174H112.979ZM116.365 174C116.258 174 116.168 173.968 116.093 173.904C116.029 173.829 115.997 173.739 115.997 173.632V163.008C115.997 162.901 116.029 162.816 116.093 162.752C116.168 162.677 116.258 162.64 116.365 162.64H117.165C117.272 162.64 117.357 162.677 117.421 162.752C117.496 162.816 117.533 162.901 117.533 163.008V166.736C117.842 166.341 118.205 166.043 118.621 165.84C119.037 165.627 119.554 165.52 120.173 165.52C121.197 165.52 121.992 165.851 122.557 166.512C123.133 167.163 123.421 168.032 123.421 169.12V173.632C123.421 173.739 123.384 173.829 123.309 173.904C123.245 173.968 123.16 174 123.053 174H122.253C122.146 174 122.056 173.968 121.981 173.904C121.917 173.829 121.885 173.739 121.885 173.632V169.2C121.885 168.443 121.698 167.856 121.325 167.44C120.962 167.024 120.434 166.816 119.741 166.816C119.069 166.816 118.53 167.029 118.125 167.456C117.73 167.872 117.533 168.453 117.533 169.2V173.632C117.533 173.739 117.496 173.829 117.421 173.904C117.357 173.968 117.272 174 117.165 174H116.365ZM129.059 174.16C127.96 174.16 127.08 173.824 126.419 173.152C125.768 172.469 125.411 171.541 125.347 170.368L125.331 169.824L125.347 169.296C125.422 168.144 125.784 167.227 126.435 166.544C127.096 165.861 127.966 165.52 129.043 165.52C130.227 165.52 131.144 165.899 131.795 166.656C132.446 167.403 132.771 168.416 132.771 169.696V169.968C132.771 170.075 132.734 170.165 132.659 170.24C132.595 170.304 132.51 170.336 132.403 170.336H126.867V170.48C126.899 171.173 127.107 171.765 127.491 172.256C127.886 172.736 128.403 172.976 129.043 172.976C129.534 172.976 129.934 172.88 130.243 172.688C130.563 172.485 130.798 172.277 130.947 172.064C131.043 171.936 131.112 171.861 131.155 171.84C131.208 171.808 131.299 171.792 131.427 171.792H132.211C132.307 171.792 132.387 171.819 132.451 171.872C132.515 171.925 132.547 172 132.547 172.096C132.547 172.331 132.398 172.613 132.099 172.944C131.811 173.275 131.4 173.563 130.867 173.808C130.344 174.043 129.742 174.16 129.059 174.16ZM131.251 169.232V169.184C131.251 168.448 131.048 167.851 130.643 167.392C130.248 166.923 129.715 166.688 129.043 166.688C128.371 166.688 127.838 166.923 127.443 167.392C127.059 167.851 126.867 168.448 126.867 169.184V169.232H131.251ZM135.052 174C134.945 174 134.855 173.968 134.78 173.904C134.716 173.829 134.684 173.739 134.684 173.632V166.048C134.684 165.941 134.716 165.856 134.78 165.792C134.855 165.717 134.945 165.68 135.052 165.68H135.772C135.879 165.68 135.964 165.717 136.028 165.792C136.103 165.856 136.14 165.941 136.14 166.048V166.608C136.695 165.883 137.468 165.52 138.46 165.52C139.644 165.52 140.481 166.011 140.972 166.992C141.228 166.544 141.591 166.187 142.06 165.92C142.529 165.653 143.057 165.52 143.644 165.52C144.519 165.52 145.233 165.819 145.788 166.416C146.343 167.013 146.62 167.877 146.62 169.008V173.632C146.62 173.739 146.583 173.829 146.508 173.904C146.444 173.968 146.359 174 146.252 174H145.5C145.393 174 145.303 173.968 145.228 173.904C145.164 173.829 145.132 173.739 145.132 173.632V169.152C145.132 168.32 144.956 167.723 144.604 167.36C144.263 166.997 143.809 166.816 143.244 166.816C142.743 166.816 142.311 167.003 141.948 167.376C141.585 167.739 141.404 168.331 141.404 169.152V173.632C141.404 173.739 141.367 173.829 141.292 173.904C141.228 173.968 141.143 174 141.036 174H140.284C140.177 174 140.087 173.968 140.012 173.904C139.948 173.829 139.916 173.739 139.916 173.632V169.152C139.916 168.32 139.735 167.723 139.372 167.36C139.02 166.997 138.572 166.816 138.028 166.816C137.527 166.816 137.095 167.003 136.732 167.376C136.369 167.739 136.188 168.325 136.188 169.136V173.632C136.188 173.739 136.151 173.829 136.076 173.904C136.012 173.968 135.927 174 135.82 174H135.052ZM153.209 174C153.102 174 153.011 173.968 152.937 173.904C152.873 173.829 152.841 173.739 152.841 173.632V163.008C152.841 162.901 152.873 162.816 152.937 162.752C153.011 162.677 153.102 162.64 153.209 162.64H154.009C154.115 162.64 154.201 162.677 154.265 162.752C154.339 162.816 154.377 162.901 154.377 163.008V166.736C154.686 166.341 155.049 166.043 155.465 165.84C155.881 165.627 156.398 165.52 157.017 165.52C158.041 165.52 158.835 165.851 159.401 166.512C159.977 167.163 160.265 168.032 160.265 169.12V173.632C160.265 173.739 160.227 173.829 160.153 173.904C160.089 173.968 160.003 174 159.897 174H159.097C158.99 174 158.899 173.968 158.825 173.904C158.761 173.829 158.729 173.739 158.729 173.632V169.2C158.729 168.443 158.542 167.856 158.169 167.44C157.806 167.024 157.278 166.816 156.585 166.816C155.913 166.816 155.374 167.029 154.969 167.456C154.574 167.872 154.377 168.453 154.377 169.2V173.632C154.377 173.739 154.339 173.829 154.265 173.904C154.201 173.968 154.115 174 154.009 174H153.209ZM165.903 174.16C164.804 174.16 163.924 173.824 163.263 173.152C162.612 172.469 162.255 171.541 162.191 170.368L162.175 169.824L162.191 169.296C162.265 168.144 162.628 167.227 163.279 166.544C163.94 165.861 164.809 165.52 165.887 165.52C167.071 165.52 167.988 165.899 168.639 166.656C169.289 167.403 169.615 168.416 169.615 169.696V169.968C169.615 170.075 169.577 170.165 169.503 170.24C169.439 170.304 169.353 170.336 169.247 170.336H163.711V170.48C163.743 171.173 163.951 171.765 164.335 172.256C164.729 172.736 165.247 172.976 165.887 172.976C166.377 172.976 166.777 172.88 167.087 172.688C167.407 172.485 167.641 172.277 167.791 172.064C167.887 171.936 167.956 171.861 167.999 171.84C168.052 171.808 168.143 171.792 168.271 171.792H169.055C169.151 171.792 169.231 171.819 169.295 171.872C169.359 171.925 169.391 172 169.391 172.096C169.391 172.331 169.241 172.613 168.943 172.944C168.655 173.275 168.244 173.563 167.711 173.808C167.188 174.043 166.585 174.16 165.903 174.16ZM168.095 169.232V169.184C168.095 168.448 167.892 167.851 167.487 167.392C167.092 166.923 166.559 166.688 165.887 166.688C165.215 166.688 164.681 166.923 164.287 167.392C163.903 167.851 163.711 168.448 163.711 169.184V169.232H168.095ZM171.896 174C171.789 174 171.698 173.968 171.624 173.904C171.56 173.829 171.528 173.739 171.528 173.632V166.064C171.528 165.957 171.56 165.867 171.624 165.792C171.698 165.717 171.789 165.68 171.896 165.68H172.632C172.738 165.68 172.829 165.717 172.904 165.792C172.978 165.867 173.016 165.957 173.016 166.064V166.768C173.453 166.043 174.2 165.68 175.256 165.68H175.88C175.986 165.68 176.072 165.717 176.136 165.792C176.21 165.856 176.248 165.941 176.248 166.048V166.704C176.248 166.811 176.21 166.896 176.136 166.96C176.072 167.024 175.986 167.056 175.88 167.056H174.92C174.344 167.056 173.89 167.227 173.56 167.568C173.229 167.899 173.064 168.352 173.064 168.928V173.632C173.064 173.739 173.026 173.829 172.952 173.904C172.877 173.968 172.786 174 172.68 174H171.896ZM180.778 174.16C179.679 174.16 178.799 173.824 178.138 173.152C177.487 172.469 177.13 171.541 177.066 170.368L177.05 169.824L177.066 169.296C177.14 168.144 177.503 167.227 178.154 166.544C178.815 165.861 179.684 165.52 180.762 165.52C181.946 165.52 182.863 165.899 183.514 166.656C184.164 167.403 184.49 168.416 184.49 169.696V169.968C184.49 170.075 184.452 170.165 184.378 170.24C184.314 170.304 184.228 170.336 184.122 170.336H178.586V170.48C178.618 171.173 178.826 171.765 179.21 172.256C179.604 172.736 180.122 172.976 180.762 172.976C181.252 172.976 181.652 172.88 181.962 172.688C182.282 172.485 182.516 172.277 182.666 172.064C182.762 171.936 182.831 171.861 182.874 171.84C182.927 171.808 183.018 171.792 183.146 171.792H183.93C184.026 171.792 184.106 171.819 184.17 171.872C184.234 171.925 184.266 172 184.266 172.096C184.266 172.331 184.116 172.613 183.818 172.944C183.53 173.275 183.119 173.563 182.586 173.808C182.063 174.043 181.46 174.16 180.778 174.16ZM182.97 169.232V169.184C182.97 168.448 182.767 167.851 182.362 167.392C181.967 166.923 181.434 166.688 180.762 166.688C180.09 166.688 179.556 166.923 179.162 167.392C178.778 167.851 178.586 168.448 178.586 169.184V169.232H182.97Z" fill="#646464"/>
<path d="M98.3335 35.3334H122.833L131 47.5834H163.667V57.6059H175.917L163.667 100.667H98.3335H163.667L175.917 57.6059H110.583L98.3335 100.667V35.3334Z" stroke="#BDBDBD" stroke-width="4.08333" stroke-linecap="round" stroke-linejoin="round"/>
<path opacity="0.3" d="M135.083 35.3333H163.667" stroke="#BDBDBD" stroke-width="4.08333" stroke-linecap="round" stroke-linejoin="round"/>
</svg>
